<svg width="823" height="146" viewBox="0 0 823 146" fill="none" xmlns="http://www.w3.org/2000/svg">
  <!-- Native app: backdrop blur comes from expo-blur under this artwork; this file is the vector shell. -->
  <path d="M6 73C6 35.9969 35.9969 6.00001 73 6.00001H208.209H310.936C310.936 6.00001 320.668 6.00001 339.051 6.00001C360.997 6.00001 355.229 6.00001 410.377 6.00001C468.769 6.00001 461.749 5.99999 482.868 6.00001C501.251 6.00002 510.983 6.00001 510.983 6.00001H616.953H750C787.003 6.00001 817 35.9969 817 73C817 110.003 787.003 140 750 140H73C35.9969 140 6 110.003 6 73Z" fill="#EEEEEE" fill-opacity="0.56"/>
  <path d="M6 73C6 35.9969 35.9969 6.00001 73 6.00001H208.209H310.936C310.936 6.00001 320.668 6.00001 339.051 6.00001C360.997 6.00001 355.229 6.00001 410.377 6.00001C468.769 6.00001 461.749 5.99999 482.868 6.00001C501.251 6.00002 510.983 6.00001 510.983 6.00001H616.953H750C787.003 6.00001 817 35.9969 817 73C817 110.003 787.003 140 750 140H73C35.9969 140 6 110.003 6 73Z" stroke="url(#paint0_linear_2286_360)" stroke-width="4"/>
  <defs>
    <linearGradient id="paint0_linear_2286_360" x1="-33" y1="45" x2="1211" y2="158" gradientUnits="userSpaceOnUse">
      <stop stop-color="white"/>
      <stop offset="1" stop-color="#005876"/>
    </linearGradient>
  </defs>
</svg>
